<?xml version="1.0" encoding="UTF-8" standalone="yes"?><svg xmlns="http://www.w3.org/2000/svg" xmlns:xlink="http://www.w3.org/1999/xlink" height="373px" style="width:479px;height:373px;" version="1.1" viewBox="0 0 479 373" width="479px"><defs><filter height="300%" id="f1" width="300%" x="-1" y="-1"><feGaussianBlur result="blurOut" stdDeviation="2.0"/><feColorMatrix in="blurOut" result="blurOut2" type="matrix" values="0 0 0 0 0 0 0 0 0 0 0 0 0 0 0 0 0 0 .4 0"/><feOffset dx="4.0" dy="4.0" in="blurOut2" result="blurOut3"/><feBlend in="SourceGraphic" in2="blurOut3" mode="normal"/></filter></defs><g><rect fill="#FFFFFF" filter="url(#f1)" height="245.7949" style="stroke: #A80036; stroke-width: 1.0;" width="10" x="121" y="117.4883"/><rect fill="#FFFFFF" filter="url(#f1)" height="187.1738" style="stroke: #A80036; stroke-width: 1.0;" width="10" x="417" y="176.1094"/><rect fill="#FFFFFF" filter="url(#f1)" height="105.2422" style="stroke: #000000; stroke-width: 2.0;" width="299.5" x="70.5" y="250.041"/><line style="stroke: #A80036; stroke-width: 1.0; stroke-dasharray: 5.0,5.0;" x1="24" x2="24" y1="86.4883" y2="372.2832"/><line style="stroke: #A80036; stroke-width: 1.0; stroke-dasharray: 5.0,5.0;" x1="125.5" x2="125.5" y1="86.4883" y2="372.2832"/><line style="stroke: #A80036; stroke-width: 1.0; stroke-dasharray: 5.0,5.0;" x1="319" x2="319" y1="86.4883" y2="372.2832"/><line style="stroke: #A80036; stroke-width: 1.0; stroke-dasharray: 5.0,5.0;" x1="422" x2="422" y1="86.4883" y2="372.2832"/><text fill="#000000" font-family="sans-serif" font-size="14" lengthAdjust="spacingAndGlyphs" textLength="26" x="8" y="83.5352">app</text><ellipse cx="24" cy="13" fill="#FEFECE" filter="url(#f1)" rx="8" ry="8" style="stroke: #A80036; stroke-width: 2.0;"/><path d="M24,21 L24,48 M11,29 L37,29 M24,48 L11,63 M24,48 L37,63 " fill="#FEFECE" filter="url(#f1)" style="stroke: #A80036; stroke-width: 2.0;"/><rect fill="#FEFECE" filter="url(#f1)" height="30.4883" style="stroke: #A80036; stroke-width: 1.5;" width="87" x="80.5" y="51"/><text fill="#000000" font-family="sans-serif" font-size="14" lengthAdjust="spacingAndGlyphs" textLength="73" x="87.5" y="71.5352">Subscriber</text><rect fill="#FEFECE" filter="url(#f1)" height="30.4883" style="stroke: #A80036; stroke-width: 1.5;" width="78" x="278" y="51"/><text fill="#000000" font-family="sans-serif" font-size="14" lengthAdjust="spacingAndGlyphs" textLength="64" x="285" y="71.5352">Publisher</text><rect fill="#FEFECE" filter="url(#f1)" height="30.4883" style="stroke: #A80036; stroke-width: 1.5;" width="100" x="370" y="51"/><text fill="#000000" font-family="sans-serif" font-size="14" lengthAdjust="spacingAndGlyphs" textLength="86" x="377" y="71.5352">Subscription</text><rect fill="#FFFFFF" filter="url(#f1)" height="245.7949" style="stroke: #A80036; stroke-width: 1.0;" width="10" x="121" y="117.4883"/><rect fill="#FFFFFF" filter="url(#f1)" height="187.1738" style="stroke: #A80036; stroke-width: 1.0;" width="10" x="417" y="176.1094"/><polygon fill="#A80036" points="109,113.4883,119,117.4883,109,121.4883,113,117.4883" style="stroke: #A80036; stroke-width: 1.0;"/><line style="stroke: #A80036; stroke-width: 1.0;" x1="24" x2="115" y1="117.4883" y2="117.4883"/><text fill="#000000" font-family="sans-serif" font-size="13" lengthAdjust="spacingAndGlyphs" textLength="78" x="31" y="113.0566">&lt;&lt;create&gt;&gt;</text><polygon fill="#A80036" points="307,142.7988,317,146.7988,307,150.7988,311,146.7988" style="stroke: #A80036; stroke-width: 1.0;"/><line style="stroke: #A80036; stroke-width: 1.0;" x1="24" x2="313" y1="146.7988" y2="146.7988"/><text fill="#000000" font-family="sans-serif" font-size="13" lengthAdjust="spacingAndGlyphs" textLength="135" x="31" y="142.3672">subscribe(Subscriber)</text><polygon fill="#A80036" points="405,172.1094,415,176.1094,405,180.1094,409,176.1094" style="stroke: #A80036; stroke-width: 1.0;"/><line style="stroke: #A80036; stroke-width: 1.0;" x1="319" x2="411" y1="176.1094" y2="176.1094"/><text fill="#000000" font-family="sans-serif" font-size="13" lengthAdjust="spacingAndGlyphs" textLength="78" x="326" y="171.6777">&lt;&lt;create&gt;&gt;</text><polygon fill="#A80036" points="142,201.4199,132,205.4199,142,209.4199,138,205.4199" style="stroke: #A80036; stroke-width: 1.0;"/><line style="stroke: #A80036; stroke-width: 1.0;" x1="136" x2="318" y1="205.4199" y2="205.4199"/><text fill="#000000" font-family="sans-serif" font-size="13" lengthAdjust="spacingAndGlyphs" textLength="164" x="148" y="200.9883">onSubscribe(Subscription)</text><polygon fill="#A80036" points="405,230.7305,415,234.7305,405,238.7305,409,234.7305" style="stroke: #A80036; stroke-width: 1.0;"/><line style="stroke: #A80036; stroke-width: 1.0;" x1="131" x2="411" y1="234.7305" y2="234.7305"/><text fill="#000000" font-family="sans-serif" font-size="13" lengthAdjust="spacingAndGlyphs" textLength="63" x="138" y="230.2988">request(n)</text><rect fill="none" height="105.2422" style="stroke: #000000; stroke-width: 2.0;" width="299.5" x="70.5" y="250.041"/><polygon fill="#EEEEEE" points="70.5,250.041,144.5,250.041,144.5,257.041,134.5,267.041,70.5,267.041,70.5,250.041" style="stroke: #000000; stroke-width: 2.0;"/><text fill="#000000" font-family="sans-serif" font-size="13" font-weight="bold" lengthAdjust="spacingAndGlyphs" textLength="29" x="85.5" y="263.6094">loop</text><text fill="#000000" font-family="sans-serif" font-size="11" font-weight="bold" lengthAdjust="spacingAndGlyphs" textLength="116" x="159.5" y="262.6758">[values in Publisher]</text><polygon fill="#A80036" points="142,284.3516,132,288.3516,142,292.3516,138,288.3516" style="stroke: #A80036; stroke-width: 1.0;"/><line style="stroke: #A80036; stroke-width: 1.0; stroke-dasharray: 2.0,2.0;" x1="136" x2="318" y1="288.3516" y2="288.3516"/><text fill="#000000" font-family="sans-serif" font-size="13" lengthAdjust="spacingAndGlyphs" textLength="72" x="148" y="283.9199">onNext(val)</text><polygon fill="#A80036" points="142,313.6621,132,317.6621,142,321.6621,138,317.6621" style="stroke: #A80036; stroke-width: 1.0;"/><line style="stroke: #A80036; stroke-width: 1.0; stroke-dasharray: 2.0,2.0;" x1="136" x2="318" y1="317.6621" y2="317.6621"/><text fill="#000000" font-family="sans-serif" font-size="13" lengthAdjust="spacingAndGlyphs" textLength="77" x="148" y="313.2305">onError(exp)</text><polygon fill="#A80036" points="142,342.9727,132,346.9727,142,350.9727,138,346.9727" style="stroke: #A80036; stroke-width: 1.0;"/><line style="stroke: #A80036; stroke-width: 1.0; stroke-dasharray: 2.0,2.0;" x1="136" x2="318" y1="346.9727" y2="346.9727"/><text fill="#000000" font-family="sans-serif" font-size="13" lengthAdjust="spacingAndGlyphs" textLength="84" x="148" y="342.541">onComplete()</text></g></svg>